<?xml version="1.0" encoding="UTF-8"?>
<svg xmlns="http://www.w3.org/2000/svg" xmlns:xlink="http://www.w3.org/1999/xlink" width="234px" height="234px" viewBox="0 0 234 234" version="1.1">
<g id="surface1">
<path style=" stroke:none;fill-rule:evenodd;fill:rgb(0%,36.078431%,66.666667%);fill-opacity:1;" d="M 13.199219 90.390625 L 220.804688 90.390625 L 220.804688 143.613281 L 13.199219 143.613281 Z M 13.199219 90.390625 "/>
<path style=" stroke:none;fill-rule:evenodd;fill:rgb(100%,100%,100%);fill-opacity:1;" d="M 64.292969 109.28125 C 66.824219 100.273438 59.488281 97.527344 51.769531 97.527344 C 43.953125 97.527344 35.667969 99.964844 33.371094 108.816406 C 32.515625 112.855469 33.648438 116.273438 37.074219 117.929688 C 44.445312 121.503906 52.339844 120.417969 51.261719 125.492188 C 50.734375 127.976562 47.421875 129.21875 45.03125 129.21875 C 41.300781 129.21875 39.128906 127.304688 39.921875 123.78125 L 29.566406 123.78125 C 27.5625 133.929688 34.691406 136.476562 43.390625 136.476562 C 52.039062 136.476562 60.601562 132.742188 62.273438 124.871094 C 64.414062 114.773438 55.441406 114.148438 49.511719 112.546875 C 46.921875 111.820312 43.796875 110.941406 44.375 108.195312 C 44.773438 106.332031 47.171875 104.777344 49.554688 104.777344 C 51.316406 104.777344 52.574219 105.191406 53.289062 105.96875 C 54.058594 106.746094 54.292969 107.832031 53.9375 109.28125 Z M 94.25 135.691406 L 95.796875 128.441406 L 77.671875 128.441406 L 79.355469 120.519531 L 96.027344 120.519531 L 97.566406 113.269531 L 80.890625 113.269531 L 82.53125 105.554688 L 100.65625 105.554688 L 102.199219 98.304688 L 73.71875 98.304688 L 65.769531 135.691406 Z M 100.101562 135.691406 L 109.421875 135.691406 L 115.507812 107.054688 L 115.609375 107.054688 L 122.214844 135.691406 L 136.554688 135.691406 L 144.503906 98.304688 L 135.183594 98.304688 L 129.28125 126.0625 L 129.160156 126.164062 L 122.550781 98.304688 L 108.050781 98.304688 Z M 150.746094 135.691406 L 154.730469 128.390625 L 169.902344 128.390625 L 170.835938 135.691406 L 182.539062 135.691406 L 175.730469 98.304688 L 163.09375 98.304688 L 140.390625 135.691406 Z M 158.910156 121.140625 L 167.289062 105.605469 L 167.445312 105.605469 L 168.902344 121.140625 Z M 196.832031 135.691406 L 204.78125 98.304688 L 194.421875 98.304688 L 186.476562 135.691406 Z M 196.832031 135.691406 "/>
<path style=" stroke:none;fill-rule:evenodd;fill:rgb(100%,100%,100%);fill-opacity:1;" d="M 13.199219 116.449219 L 24.078125 116.449219 L 24.078125 117.558594 L 13.199219 117.558594 Z M 13.199219 116.449219 "/>
<path style=" stroke:none;fill-rule:evenodd;fill:rgb(100%,100%,100%);fill-opacity:1;" d="M 13.199219 107.449219 L 24.078125 107.449219 L 24.078125 108.558594 L 13.199219 108.558594 Z M 13.199219 107.449219 "/>
<path style=" stroke:none;fill-rule:evenodd;fill:rgb(100%,100%,100%);fill-opacity:1;" d="M 13.199219 98.449219 L 24.078125 98.449219 L 24.078125 99.5625 L 13.199219 99.5625 Z M 13.199219 98.449219 "/>
<path style=" stroke:none;fill-rule:evenodd;fill:rgb(100%,100%,100%);fill-opacity:1;" d="M 13.199219 125.445312 L 24.078125 125.445312 L 24.078125 126.558594 L 13.199219 126.558594 Z M 13.199219 125.445312 "/>
<path style=" stroke:none;fill-rule:evenodd;fill:rgb(100%,100%,100%);fill-opacity:1;" d="M 13.199219 134.445312 L 24.078125 134.445312 L 24.078125 135.554688 L 13.199219 135.554688 Z M 13.199219 134.445312 "/>
<path style=" stroke:none;fill-rule:evenodd;fill:rgb(100%,100%,100%);fill-opacity:1;" d="M 209.925781 116.449219 L 220.804688 116.449219 L 220.804688 117.558594 L 209.925781 117.558594 Z M 209.925781 116.449219 "/>
<path style=" stroke:none;fill-rule:evenodd;fill:rgb(100%,100%,100%);fill-opacity:1;" d="M 209.925781 107.449219 L 220.804688 107.449219 L 220.804688 108.558594 L 209.925781 108.558594 Z M 209.925781 107.449219 "/>
<path style=" stroke:none;fill-rule:evenodd;fill:rgb(100%,100%,100%);fill-opacity:1;" d="M 209.925781 98.449219 L 220.804688 98.449219 L 220.804688 99.5625 L 209.925781 99.5625 Z M 209.925781 98.449219 "/>
<path style=" stroke:none;fill-rule:evenodd;fill:rgb(100%,100%,100%);fill-opacity:1;" d="M 209.925781 125.445312 L 220.804688 125.445312 L 220.804688 126.558594 L 209.925781 126.558594 Z M 209.925781 125.445312 "/>
<path style=" stroke:none;fill-rule:evenodd;fill:rgb(100%,100%,100%);fill-opacity:1;" d="M 209.925781 134.445312 L 220.804688 134.445312 L 220.804688 135.554688 L 209.925781 135.554688 Z M 209.925781 134.445312 "/>
</g>
</svg>
